PathFileType	4	(X/Y/Z)	0_1_29_p1_0-261.trc
DataRate	CameraRate	NumFrames	NumMarkers	Units	OrigDataRate	OrigDataStartFrame	OrigNumFrames
60	60	7	27	m	60	32	261
Frame#	Time	RHip			RKnee			RAnkle			RBigToe			RSmallToe			RHeel			LHip			LKnee			LAnkle			LBigToe			LSmallToe			LHeel			Neck			Head			Nose			RShoulder			RElbow			RWrist			RThumb			RIndex			RPinky			LShoulder			LElbow			LWrist			LThumb			LIndex			LPinky		
		X1	Y1	Z1	X2	Y2	Z2	X3	Y3	Z3	X4	Y4	Z4	X5	Y5	Z5	X6	Y6	Z6	X7	Y7	Z7	X8	Y8	Z8	X9	Y9	Z9	X10	Y10	Z10	X11	Y11	Z11	X12	Y12	Z12	X13	Y13	Z13	X14	Y14	Z14	X15	Y15	Z15	X16	Y16	Z16	X17	Y17	Z17	X18	Y18	Z18	X19	Y19	Z19	X20	Y20	Z20	X21	Y21	Z21	X22	Y22	Z22	X23	Y23	Z23	X24	Y24	Z24	X25	Y25	Z25	X26	Y26	Z26	X27	Y27	Z27
33	0.55	0.12367986222978529	0.19106819082153775	0.015553610152113559	0.12463411756403207	0.17846835137608838	-0.3901858732669046	0.15709340041356615	0.20439159438378324	-0.7614901239628841	0.18582563406188415	0.06636748708375012	-0.7908326778407686	0.1032748420595729	0.07200548811075654	-0.789317591741366	0.1654344556442265	0.25870208331437083	-0.8165578964359466	0.34043453153972214	0.178775972004505	0.018552117019518723	0.3462991000034867	0.15872665428702337	-0.3799425627531791	0.3296595035218998	0.26202499511545524	-0.7761685431105306	0.31161820611114743	0.07351917816166147	-0.798569134522632	0.3630484642221406	0.09648701383532814	-0.7976002415728345	0.3197970565327119	0.2793183591939826	-0.831932978664452	0.23107281254366116	0.25080724121430426	0.5422195192619952	0.19373898715806476	0.20720554086332738	0.7974334399290652	0.2032470692042282	0.14967801214044477	0.6690940834613424	0.06176543343499401	0.24625059280080883	0.47977629473851613	0.02371845081762533	0.2196851418171311	0.23128890030328372	0.14944633453217931	0.02615088881474466	0.13008708917297052	0.2675272693397361	0.02235003334884301	0.08548690711143553	0.2775392797155687	0.03644809078087968	0.05378334500918456	0.24443264263448006	0.0169020941839619	0.049908415730915374	0.3667338983363444	0.24359695190026057	0.48698395218732365	0.4501161397220892	0.19536034039394456	0.23712070673729585	0.31228164165925903	0.043685575485648595	0.12594330394585446	0.23283206173444032	0.01704035870922967	0.09847113176467648	0.21847829856357404	-0.012434618253763944	0.07270606778372617	0.2522125680561545	0.027204069257231716	0.041328920393988035
34	0.5666666666666667	0.12440468352626315	0.18935315310963108	0.01703399805991871	0.12507685506161387	0.1645836996518849	-0.3674913270494215	0.15793159165112872	0.20327867373005756	-0.7558451326846999	0.18501199183881162	0.06827616429516267	-0.796513409046664	0.10315250388869975	0.07274905763163572	-0.7896733721642298	0.1654902855190532	0.25845265936942863	-0.8160180408664135	0.3409464660988412	0.17778056370951179	0.015100965972194567	0.34689031215978106	0.15786798071371827	-0.37434301786246515	0.3322946516189477	0.24876112159969951	-0.7673396174556668	0.31096837847808495	0.07482188240836664	-0.804665281291564	0.3691429006542303	0.10936504691523054	-0.8075833183972763	0.31969114321092634	0.27915999439543554	-0.8313489857599212	0.2310855281818772	0.2506054345622131	0.5422479719678107	0.18933638113948034	0.196080996016936	0.7990549700064178	0.19877994437117064	0.13815091470106497	0.6714290872643889	0.06177095546162021	0.245954074318285	0.47973324729609834	0.02372868897613252	0.21966970401405056	0.2313088690667549	0.14440677492709608	0.014889890676856931	0.13095224968907238	0.24618300039975505	-0.017414904687858748	0.09180617747066992	0.24921367574441838	-0.009659771345976521	0.0669759589982569	0.22974659596449057	-0.019754157261901602	0.06296004718588709	0.37073559418869895	0.24162291866147614	0.4875410213385533	0.45003124458147187	0.19632307808861302	0.23352914615919834	0.33462935092594764	0.07882235070885159	0.10641568309883255	0.25297002922640865	0.047916140903157524	0.07260054482222142	0.24100514783507263	0.030513017026520664	0.052520529658205646	0.26785556448321685	0.06147126168607977	0.018567643470520458
35	0.5833333333333334	0.12496580765000992	0.18947181576342176	0.017450172819058824	0.12297662201077018	0.16535296959126275	-0.38163348836020194	0.15795229343352274	0.2032840774497406	-0.7558177789901104	0.18617704657492218	0.06728297973877018	-0.7910859824590046	0.10346220472004689	0.07277711681088062	-0.7896111324606696	0.16556101048225105	0.2587028319250439	-0.8164682039423639	0.3415526818406721	0.17742880001776243	0.014941813531552604	0.33813184214611947	0.14812405786194413	-0.3649615217639037	0.33653557836283804	0.24701651507968503	-0.7766496707917799	0.3178216907705999	0.05815956038028421	-0.7921160848011131	0.36309278811413637	0.09624430749762976	-0.7976321202144817	0.319596928155855	0.2781670553633787	-0.8368537216610666	0.23101868695173106	0.2503458798276125	0.5422219003093457	0.18932857170785425	0.19477463841840173	0.7960691827225942	0.19901223769619777	0.1376868598011765	0.6747759323686222	0.06187082456435058	0.24556235453580583	0.4797767991402049	0.02376216913997141	0.22026839564667855	0.23142933694061613	0.13489983195420457	0.005256790170538919	0.1313528168686189	0.23180400494639058	-0.025993040352395445	0.08955543593478854	0.2354867037257602	-0.03128635254332295	0.0761803990927441	0.22446081774812385	-0.019163420086160475	0.0554543378297696	0.3707612807042054	0.2415718902444941	0.48760610906999813	0.45539841026852784	0.20918718190662874	0.23650866501588882	0.3519720733971797	0.08983639727258698	0.10144430767931864	0.2717295449764064	0.059908738336409695	0.06851023587440187	0.26404572797517445	0.05148044804589647	0.035688473731989634	0.27188566809093984	0.07147867201817949	0.014595304721107758
36	0.6	0.1251788014445364	0.18838820943916004	0.023221502559658224	0.12676789975106603	0.15873984558251544	-0.38631070845238535	0.157984870877142	0.20330099898476708	-0.7559263466645545	0.18650021748982187	0.06751823615066115	-0.7910813207101772	0.10749413702832669	0.07037982262803023	-0.7878939368104048	0.16619226994090022	0.25773517157427167	-0.8209364248589188	0.3418735600369529	0.17632839294859382	0.016511491632239618	0.3374527654335214	0.144129046513654	-0.3748412668779462	0.33250052590576085	0.24737986251847105	-0.7812631064270598	0.3158975850717925	0.0715022867239883	-0.797735207652486	0.36919907985595596	0.10921188167950809	-0.8076180123889605	0.3262470237604262	0.2932948434615969	-0.847426864924518	0.23105568545828198	0.24999407963713097	0.5421155387270036	0.1893822464435293	0.19467046820446104	0.7959991579387391	0.1989374564144222	0.13683086744033882	0.6716905675936475	0.06196502184383274	0.24562583011997424	0.47984291790247374	0.02388814929607218	0.22156075584453325	0.234723135327312	0.12368789965449421	0.004680263401107965	0.12777572511371824	0.2248560914219673	-0.01768897469636637	0.0743045663859824	0.22698097239807197	-0.02868851499561983	0.06694249473057494	0.21054099635326817	-0.024109620548211353	0.05036965000076597	0.37079919779787784	0.24128658451169638	0.4875353855836207	0.4552098933538445	0.21097794423034677	0.23565693355364747	0.35744094598184145	0.08695260816103582	0.09893455824009313	0.2783499977445696	0.051797441608434934	0.05474059983181165	0.27516684757738963	0.06025268927076566	0.01970272831695679	0.30559930565765303	0.13193009305915912	-0.025183558996866005
37	0.6166666666666667	0.1290625299805342	0.19016434387849285	0.04004682903876817	0.1268487933611655	0.1651535175945207	-0.34032385958382283	0.15824333604250254	0.20497981818661593	-0.7526082065958701	0.1900090834555981	0.0549029089415505	-0.7821121416856938	0.10764851615446841	0.06965062210533321	-0.7874050711055313	0.16620562118048743	0.25863023876114893	-0.8218285881799784	0.3419176021320854	0.17979525340254612	0.03682981675012161	0.3389871640676481	0.1475961477297529	-0.3433418863008256	0.3334956480554727	0.25882711697376987	-0.7783569868699289	0.31713805844985704	0.06054265835647665	-0.7842342376785361	0.3619655226563529	0.09664555537140165	-0.7933666165269155	0.32624403037044336	0.2949496645031138	-0.8502073240596694	0.2310557196853214	0.24958493450149685	0.5420828340737766	0.19298134294308134	0.19273424335646958	0.7930805638033293	0.19878654207933744	0.1369403028264944	0.6683369243278134	0.06480309073421733	0.2351349194227609	0.478937924422512	0.024056266967120866	0.22220017919526172	0.234581117620917	0.11870274556256497	0.005662250630937141	0.11976589771053232	0.2163306067586232	-0.02882583682474514	0.07161644843528091	0.21736977128199195	-0.03766483034840396	0.05983293759288059	0.18991747114912713	-0.03412721182902097	0.04263449576260343	0.36533869075860603	0.22885888173634417	0.49082633146362376	0.4596769926909888	0.20793698170263755	0.24069310248105744	0.37784336433207416	0.08158616766665629	0.10490208382134557	0.2945599267855857	0.057614947230204355	0.05196555584931907	0.30181599450679925	0.06660754323562453	0.010704363322502452	0.33929651691478346	0.13592915245436182	-0.03729933307270145
38	0.6333333333333333	0.13173085326112643	0.19800827099333967	0.03860120856404178	0.1302373907179754	0.16064735323364115	-0.34577550724710526	0.15789708977576483	0.20333798063900224	-0.7557540849765199	0.18962774670610366	0.05472731709472805	-0.7821911618711004	0.1038259668886606	0.07185595915456547	-0.7890625050649391	0.16510465980327835	0.2592505635663797	-0.8170456446060461	0.3428717908998482	0.17624329475650707	0.03823706181828634	0.3392150239146253	0.14530143559800934	-0.34127192548292645	0.3322066560651163	0.24705768468270797	-0.7705618279665337	0.31701691614280036	0.0602116655287106	-0.7839852646406421	0.35687238901249957	0.08294427490404525	-0.787316134989945	0.32635576586497	0.29456146226091773	-0.8496829146770113	0.22629399457478194	0.2372937069407558	0.5449458372184852	0.19576954317882622	0.18142148012106238	0.7946322456130654	0.1987373814196019	0.1369621963808236	0.6682256162076906	0.06478504668109875	0.2348771042512016	0.47884455889190164	0.024356475741045536	0.22149117989621417	0.23111673902712454	0.10810053843783808	0.016753767674412945	0.10728593580944891	0.2122332476313393	-0.02714646145448562	0.07123472676109349	0.19777616890988206	-0.035464171014554825	0.04597357451700514	0.16119500404996512	0.007708979904133034	-0.004498056701224321	0.36525777693770967	0.22858183439705634	0.4908943884698119	0.4644565898165077	0.23041006919866147	0.2408946196148862	0.38469780905609285	0.06589318633622902	0.10767822699367637	0.3026153224050918	0.058259424386881545	0.0432925664300299	0.31959796924488265	0.07462473493297737	0.0024724473579148276	0.3492458424263564	0.14280682389669816	-0.04648072646636981
39	0.65	0.1264378771976969	0.20355510719065384	0.04368996722170051	0.131200640974647	0.16090562341596726	-0.33742181518853526	0.15786502659309853	0.20333466659218843	-0.755734062875829	0.18897514110751149	0.05597682298443188	-0.7877693980061147	0.10753775685352795	0.0697306302351016	-0.7876337818524742	0.1659845732021256	0.25790100025640267	-0.8211985155276889	0.342430202769879	0.17733585331296048	0.04200905200187022	0.3391333331380981	0.14544941863614624	-0.34079101295326336	0.33349056523253556	0.25863714094394363	-0.7783391136603648	0.31724139494918835	0.06030566259968002	-0.7841819721430561	0.36291353590012904	0.09575170907452724	-0.7972391017373943	0.32667204998788046	0.29429928253236337	-0.8496147397346457	0.22630705473844562	0.2371238960568795	0.5449715524063181	0.19575617031178522	0.1809966492463328	0.7947928337389524	0.19869672123526452	0.13684250811201226	0.6682842871018976	0.0652377481255437	0.23438637099069615	0.4824459506927608	0.02116660815743157	0.23356793580211832	0.2270750813689509	0.1005561098721681	0.029945658496482216	0.10208724074198208	0.20258211344500812	-0.03480740125074796	0.06639907538834891	0.17603368881183662	-0.047456412594347394	0.038576655698065114	0.1463027574467245	0.00461376542216057	-0.011096491447272292	0.36521551761612	0.22840721165453984	0.4909908730806948	0.4649085488483814	0.22947994706065622	0.2382353257824397	0.39498444649796977	0.07414878735882771	0.0927923275408175	0.3236059410083677	0.09050589261346963	0.019930920448716426	0.3418421444920518	0.09667947371202383	-0.014951238995416425	0.36136296479686336	0.10421892162959885	-0.035664305223273136
